# xmcd
#
# Track frame offsets: 
#        150
#        17095
#        35605
#        46905
#        71422
#        86580
#        108054
#        121657
#
# Disc length: 1857 seconds
#
# Revision: 0
# Processed by: cddbd v1.5.2PL0 Copyright (c) Steve Scherf et al.
# Submitted via: ExactAudioCopy v1.3
#
DISCID=58073f08
DTITLE=The Mulligans (feat. Gary Chapman)  - At Home On The Range
DYEAR=1900
DGENRE=Christian
TTITLE0=It's About A Fire
TTITLE1=We Play Them All
TTITLE2=One Man Scramble
TTITLE3=In My Dreams
TTITLE4=Home On The Range
TTITLE5=Anything's Possible
TTITLE6=The Bogeyman
TTITLE7=The Game (with Paul Azinger)
EXTD=
EXTT0=
EXTT1=
EXTT2=
EXTT3=
EXTT4=
EXTT5=
EXTT6=
EXTT7=
PLAYORDER=
